<?xml version="1.0" encoding="UTF-8"?>
<svg width="160px" height="160px" viewBox="0 0 160 160" version="1.1" xmlns="http://www.w3.org/2000/svg" xmlns:xlink="http://www.w3.org/1999/xlink">
    <title>flagger-stacked-color</title>
    <g id="flagger-stacked-color" stroke="none" stroke-width="1" fill="none" fill-rule="evenodd">
        <path d="M10.1931429,149 L10.1931429,125.648 L15.6811429,125.648 L15.6811429,121.952 L10.1931429,121.952 L10.1931429,119.88 C10.1931429,116.408 11.7051429,114.56 14.5051429,114.56 C15.5131429,114.56 16.2411429,114.784 16.9131429,115.176 L17.9771429,111.984 C16.8571429,111.368 15.4571429,111.088 13.8331429,111.088 C9.18514286,111.088 5.99314286,114.28 5.99314286,119.88 L5.99314286,121.952 L1.51314286,121.952 L1.51314286,125.648 L5.99314286,125.648 L5.99314286,149 L10.1931429,149 Z M24.9211429,149 L24.9211429,111.648 L20.7211429,111.648 L20.7211429,149 L24.9211429,149 Z M10.1931429,149 L10.1931429,125.648 L15.6811429,125.648 L15.6811429,121.952 L10.1931429,121.952 L10.1931429,119.88 C10.1931429,116.408 11.7051429,114.56 14.5051429,114.56 C15.5131429,114.56 16.2411429,114.784 16.9131429,115.176 L17.9771429,111.984 C16.8571429,111.368 15.4571429,111.088 13.8331429,111.088 C9.18514286,111.088 5.99314286,114.28 5.99314286,119.88 L5.99314286,121.952 L1.51314286,121.952 L1.51314286,125.648 L5.99314286,125.648 L5.99314286,149 L10.1931429,149 Z M24.9211429,149 L24.9211429,111.648 L20.7211429,111.648 L20.7211429,149 L24.9211429,149 Z M38.9874286,149.672 C42.6274286,149.672 45.7634286,148.384 47.9474286,145.92 L47.9474286,149 L52.1474286,149 L52.1474286,130.408 C52.1474286,123.856 47.4434286,121.28 41.6754286,121.28 C37.2514286,121.28 33.7794286,122.736 30.8674286,125.76 L32.8274286,128.672 C35.2354286,126.04 37.8674286,124.92 41.1154286,124.92 C45.0354286,124.92 47.9474286,126.992 47.9474286,130.576 L47.9474286,135.448 C45.7634286,132.984 42.6834286,131.808 38.9874286,131.808 C34.3954286,131.808 29.5794286,134.608 29.5794286,140.712 C29.5794286,146.592 34.4514286,149.672 38.9874286,149.672 Z M40.5554286,146.648 C36.5794286,146.648 33.8354286,144.184 33.8354286,140.712 C33.8354286,137.296 36.5794286,134.832 40.5554286,134.832 C43.4674286,134.832 46.3234286,135.952 47.9474286,138.136 L47.9474286,143.288 C46.3234286,145.528 43.4674286,146.648 40.5554286,146.648 Z M69.1817143,159.976 C75.7897143,159.976 82.1177143,157.176 82.1177143,148.608 L82.1177143,121.952 L77.9177143,121.952 L77.9177143,126.04 C75.7337143,123.072 72.4297143,121.28 68.7897143,121.28 C61.6777143,121.28 56.7497143,126.656 56.7497143,135.336 C56.7497143,144.072 61.7337143,149.336 68.7897143,149.336 C72.5977143,149.336 75.9017143,147.264 77.9177143,144.52 L77.9177143,148.608 C77.9177143,154.32 73.6617143,156.504 69.1817143,156.504 C65.3177143,156.504 62.6297143,155.496 60.3897143,152.864 L58.2617143,155.888 C61.5097143,159.08 64.6457143,159.976 69.1817143,159.976 Z M69.8537143,145.584 C64.3657143,145.584 61.1177143,141.272 61.1177143,135.336 C61.1177143,129.344 64.3657143,125.032 69.8537143,125.032 C73.1577143,125.032 76.4057143,127.048 77.9177143,129.344 L77.9177143,141.216 C76.4057143,143.568 73.1577143,145.584 69.8537143,145.584 Z M99.096,159.976 C105.704,159.976 112.032,157.176 112.032,148.608 L112.032,121.952 L107.832,121.952 L107.832,126.04 C105.648,123.072 102.344,121.28 98.704,121.28 C91.592,121.28 86.664,126.656 86.664,135.336 C86.664,144.072 91.648,149.336 98.704,149.336 C102.512,149.336 105.816,147.264 107.832,144.52 L107.832,148.608 C107.832,154.32 103.576,156.504 99.096,156.504 C95.232,156.504 92.544,155.496 90.304,152.864 L88.176,155.888 C91.424,159.08 94.56,159.976 99.096,159.976 Z M99.768,145.584 C94.28,145.584 91.032,141.272 91.032,135.336 C91.032,129.344 94.28,125.032 99.768,125.032 C103.072,125.032 106.32,127.048 107.832,129.344 L107.832,141.216 C106.32,143.568 103.072,145.584 99.768,145.584 Z M130.410286,149.672 C134.778286,149.672 138.418286,148.16 141.162286,145.472 L139.146286,142.728 C136.962286,144.968 133.882286,146.2 130.746286,146.2 C124.922286,146.2 121.394286,141.944 121.058286,136.848 L142.898286,136.848 L142.898286,135.784 C142.898286,127.664 138.082286,121.28 129.906286,121.28 C122.178286,121.28 116.578286,127.608 116.578286,135.448 C116.578286,143.904 122.346286,149.672 130.410286,149.672 Z M138.754286,133.712 L121.002286,133.712 C121.226286,129.624 124.082286,124.752 129.850286,124.752 C136.010286,124.752 138.698286,129.736 138.754286,133.712 Z M151.588571,149 L151.588571,129.848 C152.820571,127.664 156.348571,125.536 158.980571,125.536 C159.596571,125.536 160.100571,125.592 160.604571,125.648 L160.604571,121.336 C156.908571,121.336 153.772571,123.464 151.588571,126.264 L151.588571,121.952 L147.388571,121.952 L147.388571,149 L151.588571,149 Z" id="fflagger" fill="#1A1A1A" fill-rule="nonzero"></path>
        <g id="flags" transform="translate(26.036697, 0.500000)" fill="#7BB09F">
            <path d="M53.9358922,0.7 L53.9361614,0.7149 L53.9361614,0.7149 L53.9369368,0.9336 C53.9370203,0.972 53.9371029,1.015 53.9371847,1.0625 L53.9378977,1.6088 C53.9379744,1.6824 53.9380503,1.7602 53.9381254,1.8421 L53.9389868,3.0153 C53.9390554,3.1284 53.9391232,3.2452 53.9391903,3.3656 L53.9399577,4.9768 C53.9400186,5.1244 53.9400788,5.2752 53.9401383,5.4291 L53.9409762,7.9576 C53.9410285,8.14 53.9410802,8.325 53.9411311,8.5125 L53.9419772,12.1359 C53.9420204,12.3498 53.9420629,12.5656 53.9421048,12.7832 L53.9429968,18.3 C53.9430294,18.54 53.9430615,18.781 53.943093,19.0229 L53.943952,27.1992 C53.9439728,27.4488 53.9439933,27.6982 53.9440133,27.9473 L53.9449541,50.7 L53.9449541,50.7 C53.3879217,50.7014777 52.830488,50.538921 52.3437254,50.211951 L19.6313575,28.2303499 C19.498497,28.1410415 19.375601,28.0433533 19.2626695,27.9385428 L1.40077569,39.7 C-0.466925231,38.5321603 -0.466925231,35.903287 1.40077569,34.7364344 L33.206,14.047 L52.3437254,1.18768595 C52.8278484,0.862489056 53.3818782,0.7 53.9358922,0.7 Z" id="Combined-Shape"></path>
            <path d="M53.9449541,53.7 C54.518545,53.6973849 55.0927551,53.8599359 55.5939898,54.1878202 L89.1239541,76.1279689 L105.632086,65.7 C107.358112,66.8668656 107.358112,69.4957682 105.632086,70.663621 L73.3882295,91.6036587 C73.3686858,91.6168729 73.348778,91.6191194 73.3286088,91.6113313 L55.5939898,103.212312 C55.1094503,103.529275 54.5567157,103.691735 54.0022691,103.7 L54.0020013,103.4664 C54.0019573,103.428 54.001908,103.385 54.0018535,103.3375 L54.0009599,102.5579 C54.000866,102.476 54.0007674,102.39 54.0006643,102.3 L53.9999912,101.7128 C53.9953913,97.7 53.9845014,88.2 53.9736116,78.7 L53.9718931,77.2008 C53.9627374,69.2136 53.9538164,61.4312 53.9488864,57.1304 L53.9480097,56.3656 C53.9475957,56.0044 53.9472188,55.6756 53.9468821,55.3819 L53.9459959,54.6088 C53.9459115,54.5352 53.945832,54.4658 53.9457573,54.4007 L53.9449541,53.7 L53.9449541,53.7 Z" id="Combined-Shape"></path>
            <g id="Group-Copy" transform="translate(17.363303, 0.000000)">
                <path d="M40.0825271,2.57811824 C39.3101975,2.18406772 37.9113821,0.772333321 36.5592679,0.815362703 C35.3879258,0.815362703 34.9298365,1.30862747 33.0353111,2.57811824 C35.6703059,3.73059649 45.4272614,7.16970562 48.1569327,7.9404 C43.8145304,5.00479909 41.1230619,3.21737183 40.0825271,2.57811824 Z" id="Fill-5"></path>
                <path d="M29.6177773,4.85830684 L26.6147653,6.81885893 C29.4750473,8.76729329 32.2115554,10.2845904 34.8242897,11.3707502 C40.1341913,13.5781702 46.8841749,14.9995752 48.423617,15.3807663 C57.1621923,17.5447908 65.4157347,19.5875337 72.0525009,26.2540122 C72.3898283,26.5917965 72.7061975,26.9365971 73.0195726,27.2824 C73.7002154,25.9763676 73.358896,24.2523647 71.9976104,23.3643028 L58.8667933,14.7893932 C55.6791495,13.7329403 52.4316251,12.9250645 49.222025,12.1312213 C46.1950608,11.3814806 41.0779702,10.0491921 38.2156776,9.13005801 C36.3074826,8.51730196 33.4415158,7.0933849 29.6177773,4.85830684 Z" id="Fill-7"></path>
                <path d="M29.7315665,14.094497 C27.5581473,13.0954401 25.1789914,11.566935 22.5940987,9.50898164 L19.7614089,11.4291886 C22.680354,13.872933 25.1682837,15.5953444 27.225198,16.5964226 C30.3105695,18.09804 42.0831903,21.3149916 42.8121204,21.4949169 C51.5552876,23.6520212 59.5365954,25.256157 66.1778478,31.9045231 C66.1888316,31.9163913 68.9772132,30.2313417 68.797477,30.052416 C61.5001876,22.7464498 52.4120302,20.425361 43.6109479,18.253263 C42.6064223,18.005366 32.9916953,15.5930823 29.7315665,14.094497 Z" id="Fill-11"></path>
                <path d="M40.2748943,27.6858128 C47.2416777,29.4577639 53.792549,31.5762923 59.3417736,36.4444 L62.2704462,34.569277 C55.9296207,28.6976319 48.8074918,25.8624309 40.7862587,24.3617515 C33.595662,23.0164746 28.8766311,21.3487752 23.507058,19.2459776 C19.9273426,17.8441125 17.1081118,16.3021039 15.0493654,14.6199518 L12.1044223,16.5060931 C15.496129,19.1544049 18.552383,21.0412683 21.2731845,22.1666833 C24.8656838,23.6526619 31.1995871,25.4923718 40.2748943,27.6858128 Z" id="Fill-17"></path>
                <path d="M5.18885131,21.1343855 C5.29067424,21.2373258 5.38333311,21.3442637 5.48821073,21.4462046 C12.9304487,28.7509644 21.8300234,30.8575975 30.8057147,33.0293369 C38.5788773,34.9092456 45.6427477,36.4683588 51.8987485,41.3005539 L54.8844037,39.3547126 C47.8362204,33.5300936 39.7691873,31.7600736 31.6202982,29.7892176 C22.7942865,27.6534573 14.8355558,25.7666967 8.09895067,19.2774634 L5.18885131,21.1343855 Z" id="Fill-19"></path>
                <path d="M1.86538962,23.4720365 C0.558922248,24.8286618 0.712329392,27.1676708 2.35067758,28.271683 L12.2679982,34.9570906 C16.6576484,36.8407725 20.0248373,37.7569569 24.5388174,38.9108681 C31.5855194,40.7113852 38.2525371,42.1959537 44.0850166,46.38226 L46.9264812,44.4396723 C40.2948809,39.2709822 32.8228032,37.452366 25.3399436,35.5395764 C16.5616459,33.2962069 9.49263239,31.439221 2.82393361,24.5251104 C2.49004747,24.178937 2.17621456,23.8265263 1.86538962,23.4720365 Z" id="Fill-21"></path>
                <path d="M34.1645854,49.6645268 C34.893506,50.0634031 35.1425612,50.5086988 36.1796702,50.7 C36.9305233,50.7 37.7585832,50.659873 38.4352738,50.23418 L40.0920678,49.1926318 C34.7693674,45.7494414 29.2447004,43.7586502 23.3471124,42.3058883 L34.1645854,49.6645268 Z" id="Fill-23"></path>
            </g>
            <g id="Group-Copy-2" transform="translate(17.363303, 53.000000)">
                <path d="M40.0825271,2.57811824 C39.3101975,2.18406772 37.9113821,0.772333321 36.5592679,0.815362703 C35.3879258,0.815362703 34.9298365,1.30862747 33.0353111,2.57811824 C35.6703059,3.73059649 45.4272614,7.16970562 48.1569327,7.9404 C43.8145304,5.00479909 41.1230619,3.21737183 40.0825271,2.57811824 Z" id="Fill-5"></path>
                <path d="M29.6177773,4.85830684 L26.6147653,6.81885893 C29.4750473,8.76729329 32.2115554,10.2845904 34.8242897,11.3707502 C40.1341913,13.5781702 46.8841749,14.9995752 48.423617,15.3807663 C57.1621923,17.5447908 65.4157347,19.5875337 72.0525009,26.2540122 C72.3898283,26.5917965 72.7061975,26.9365971 73.0195726,27.2824 C73.7002154,25.9763676 73.358896,24.2523647 71.9976104,23.3643028 L58.8667933,14.7893932 C55.6791495,13.7329403 52.4316251,12.9250645 49.222025,12.1312213 C46.1950608,11.3814806 41.0779702,10.0491921 38.2156776,9.13005801 C36.3074826,8.51730196 33.4415158,7.0933849 29.6177773,4.85830684 Z" id="Fill-7"></path>
                <path d="M29.7315665,14.094497 C27.5581473,13.0954401 25.1789914,11.566935 22.5940987,9.50898164 L19.7614089,11.4291886 C22.680354,13.872933 25.1682837,15.5953444 27.225198,16.5964226 C30.3105695,18.09804 42.0831903,21.3149916 42.8121204,21.4949169 C51.5552876,23.6520212 59.5365954,25.256157 66.1778478,31.9045231 C66.1888316,31.9163913 68.9772132,30.2313417 68.797477,30.052416 C61.5001876,22.7464498 52.4120302,20.425361 43.6109479,18.253263 C42.6064223,18.005366 32.9916953,15.5930823 29.7315665,14.094497 Z" id="Fill-11"></path>
                <path d="M40.2748943,27.6858128 C47.2416777,29.4577639 53.792549,31.5762923 59.3417736,36.4444 L62.2704462,34.569277 C55.9296207,28.6976319 48.8074918,25.8624309 40.7862587,24.3617515 C33.595662,23.0164746 28.8766311,21.3487752 23.507058,19.2459776 C19.9273426,17.8441125 17.1081118,16.3021039 15.0493654,14.6199518 L12.1044223,16.5060931 C15.496129,19.1544049 18.552383,21.0412683 21.2731845,22.1666833 C24.8656838,23.6526619 31.1995871,25.4923718 40.2748943,27.6858128 Z" id="Fill-17"></path>
                <path d="M5.18885131,21.1343855 C5.29067424,21.2373258 5.38333311,21.3442637 5.48821073,21.4462046 C12.9304487,28.7509644 21.8300234,30.8575975 30.8057147,33.0293369 C38.5788773,34.9092456 45.6427477,36.4683588 51.8987485,41.3005539 L54.8844037,39.3547126 C47.8362204,33.5300936 39.7691873,31.7600736 31.6202982,29.7892176 C22.7942865,27.6534573 14.8355558,25.7666967 8.09895067,19.2774634 L5.18885131,21.1343855 Z" id="Fill-19"></path>
                <path d="M1.86538962,23.4720365 C0.558922248,24.8286618 0.712329392,27.1676708 2.35067758,28.271683 L12.2679982,34.9570906 C16.6576484,36.8407725 20.0248373,37.7569569 24.5388174,38.9108681 C31.5855194,40.7113852 38.2525371,42.1959537 44.0850166,46.38226 L46.9264812,44.4396723 C40.2948809,39.2709822 32.8228032,37.452366 25.3399436,35.5395764 C16.5616459,33.2962069 9.49263239,31.439221 2.82393361,24.5251104 C2.49004747,24.178937 2.17621456,23.8265263 1.86538962,23.4720365 Z" id="Fill-21"></path>
                <path d="M34.1645854,49.6645268 C34.893506,50.0634031 35.1425612,50.5086988 36.1796702,50.7 C36.9305233,50.7 37.7585832,50.659873 38.4352738,50.23418 L40.0920678,49.1926318 C34.7693674,45.7494414 29.2447004,43.7586502 23.3471124,42.3058883 L34.1645854,49.6645268 Z" id="Fill-23"></path>
            </g>
        </g>
    </g>
</svg>