<?xml version="1.0" encoding="UTF-8"?>
<svg width="359px" height="106px" viewBox="0 0 359 106" version="1.1" xmlns="http://www.w3.org/2000/svg" xmlns:xlink="http://www.w3.org/1999/xlink">
    <title>flagger-vertical-white</title>
    <g id="flagger-vertical-white" stroke="none" stroke-width="1" fill="none" fill-rule="evenodd">
        <path d="M136.167,78 L136.167,45.891 L143.713,45.891 L143.713,40.809 L136.167,40.809 L136.167,37.96 C136.167,33.186 138.246,30.645 142.096,30.645 C143.482,30.645 144.483,30.953 145.407,31.492 L146.87,27.103 C145.33,26.256 143.405,25.871 141.172,25.871 C134.781,25.871 130.392,30.26 130.392,37.96 L130.392,40.809 L124.232,40.809 L124.232,45.891 L130.392,45.891 L130.392,78 L136.167,78 Z M156.418,78 L156.418,26.641 L150.643,26.641 L150.643,78 L156.418,78 Z M136.167,78 L136.167,45.891 L143.713,45.891 L143.713,40.809 L136.167,40.809 L136.167,37.96 C136.167,33.186 138.246,30.645 142.096,30.645 C143.482,30.645 144.483,30.953 145.407,31.492 L146.87,27.103 C145.33,26.256 143.405,25.871 141.172,25.871 C134.781,25.871 130.392,30.26 130.392,37.96 L130.392,40.809 L124.232,40.809 L124.232,45.891 L130.392,45.891 L130.392,78 L136.167,78 Z M156.418,78 L156.418,26.641 L150.643,26.641 L150.643,78 L156.418,78 Z M178.902,78.924 C183.907,78.924 188.219,77.153 191.222,73.765 L191.222,78 L196.997,78 L196.997,52.436 C196.997,43.427 190.529,39.885 182.598,39.885 C176.515,39.885 171.741,41.887 167.737,46.045 L170.432,50.049 C173.743,46.43 177.362,44.89 181.828,44.89 C187.218,44.89 191.222,47.739 191.222,52.667 L191.222,59.366 C188.219,55.978 183.984,54.361 178.902,54.361 C172.588,54.361 165.966,58.211 165.966,66.604 C165.966,74.689 172.665,78.924 178.902,78.924 Z M181.058,74.766 C175.591,74.766 171.818,71.378 171.818,66.604 C171.818,61.907 175.591,58.519 181.058,58.519 C185.062,58.519 188.989,60.059 191.222,63.062 L191.222,70.146 C188.989,73.226 185.062,74.766 181.058,74.766 Z M223.562,93.092 C232.648,93.092 241.349,89.242 241.349,77.461 L241.349,40.809 L235.574,40.809 L235.574,46.43 C232.571,42.349 228.028,39.885 223.023,39.885 C213.244,39.885 206.468,47.277 206.468,59.212 C206.468,71.224 213.321,78.462 223.023,78.462 C228.259,78.462 232.802,75.613 235.574,71.84 L235.574,77.461 C235.574,85.315 229.722,88.318 223.562,88.318 C218.249,88.318 214.553,86.932 211.473,83.313 L208.547,87.471 C213.013,91.86 217.325,93.092 223.562,93.092 Z M224.486,73.303 C216.94,73.303 212.474,67.374 212.474,59.212 C212.474,50.973 216.94,45.044 224.486,45.044 C229.029,45.044 233.495,47.816 235.574,50.973 L235.574,67.297 C233.495,70.531 229.029,73.303 224.486,73.303 Z M267.837,93.092 C276.923,93.092 285.624,89.242 285.624,77.461 L285.624,40.809 L279.849,40.809 L279.849,46.43 C276.846,42.349 272.303,39.885 267.298,39.885 C257.519,39.885 250.743,47.277 250.743,59.212 C250.743,71.224 257.596,78.462 267.298,78.462 C272.534,78.462 277.077,75.613 279.849,71.84 L279.849,77.461 C279.849,85.315 273.997,88.318 267.837,88.318 C262.524,88.318 258.828,86.932 255.748,83.313 L252.822,87.471 C257.288,91.86 261.6,93.092 267.837,93.092 Z M268.761,73.303 C261.215,73.303 256.749,67.374 256.749,59.212 C256.749,50.973 261.215,45.044 268.761,45.044 C273.304,45.044 277.77,47.816 279.849,50.973 L279.849,67.297 C277.77,70.531 273.304,73.303 268.761,73.303 Z M314.037,78.924 C320.043,78.924 325.048,76.845 328.821,73.149 L326.049,69.376 C323.046,72.456 318.811,74.15 314.499,74.15 C306.491,74.15 301.64,68.298 301.178,61.291 L331.208,61.291 L331.208,59.828 C331.208,48.663 324.586,39.885 313.344,39.885 C302.718,39.885 295.018,48.586 295.018,59.366 C295.018,70.993 302.949,78.924 314.037,78.924 Z M325.51,56.979 L301.101,56.979 C301.409,51.358 305.336,44.659 313.267,44.659 C321.737,44.659 325.433,51.512 325.51,56.979 Z M346.3,78 L346.3,51.666 C347.994,48.663 352.845,45.737 356.464,45.737 C357.311,45.737 358.004,45.814 358.697,45.891 L358.697,39.962 C353.615,39.962 349.303,42.888 346.3,46.738 L346.3,40.809 L340.525,40.809 L340.525,78 L346.3,78 Z" id="fflagger" fill="#FFFFFF" fill-rule="nonzero"></path>
        <g id="flags" transform="translate(0.036697, 0.500000)" fill="#FFFFFF">
            <path d="M53.9358922,0.7 L53.9361614,0.7149 L53.9361614,0.7149 L53.9369368,0.9336 C53.9370203,0.972 53.9371029,1.015 53.9371847,1.0625 L53.9378977,1.6088 C53.9379744,1.6824 53.9380503,1.7602 53.9381254,1.8421 L53.9389868,3.0153 C53.9390554,3.1284 53.9391232,3.2452 53.9391903,3.3656 L53.9399577,4.9768 C53.9400186,5.1244 53.9400788,5.2752 53.9401383,5.4291 L53.9409762,7.9576 C53.9410285,8.14 53.9410802,8.325 53.9411311,8.5125 L53.9419772,12.1359 C53.9420204,12.3498 53.9420629,12.5656 53.9421048,12.7832 L53.9429968,18.3 C53.9430294,18.54 53.9430615,18.781 53.943093,19.0229 L53.943952,27.1992 C53.9439728,27.4488 53.9439933,27.6982 53.9440133,27.9473 L53.9449541,50.7 L53.9449541,50.7 C53.3879217,50.7014777 52.830488,50.538921 52.3437254,50.211951 L19.6313575,28.2303499 C19.498497,28.1410415 19.375601,28.0433533 19.2626695,27.9385428 L1.40077569,39.7 C-0.466925231,38.5321603 -0.466925231,35.903287 1.40077569,34.7364344 L33.206,14.047 L52.3437254,1.18768595 C52.8278484,0.862489056 53.3818782,0.7 53.9358922,0.7 Z" id="Combined-Shape"></path>
            <path d="M53.9449541,53.7 C54.518545,53.6973849 55.0927551,53.8599359 55.5939898,54.1878202 L89.1239541,76.1279689 L105.632086,65.7 C107.358112,66.8668656 107.358112,69.4957682 105.632086,70.663621 L73.3882295,91.6036587 C73.3686858,91.6168729 73.348778,91.6191194 73.3286088,91.6113313 L55.5939898,103.212312 C55.1094503,103.529275 54.5567157,103.691735 54.0022691,103.7 L54.0020013,103.4664 C54.0019573,103.428 54.001908,103.385 54.0018535,103.3375 L54.0009599,102.5579 C54.000866,102.476 54.0007674,102.39 54.0006643,102.3 L53.9999912,101.7128 C53.9953913,97.7 53.9845014,88.2 53.9736116,78.7 L53.9718931,77.2008 C53.9627374,69.2136 53.9538164,61.4312 53.9488864,57.1304 L53.9480097,56.3656 C53.9475957,56.0044 53.9472188,55.6756 53.9468821,55.3819 L53.9459959,54.6088 C53.9459115,54.5352 53.945832,54.4658 53.9457573,54.4007 L53.9449541,53.7 L53.9449541,53.7 Z" id="Combined-Shape"></path>
            <g id="Group-Copy" transform="translate(17.363303, 0.000000)">
                <path d="M40.0825271,2.57811824 C39.3101975,2.18406772 37.9113821,0.772333321 36.5592679,0.815362703 C35.3879258,0.815362703 34.9298365,1.30862747 33.0353111,2.57811824 C35.6703059,3.73059649 45.4272614,7.16970562 48.1569327,7.9404 C43.8145304,5.00479909 41.1230619,3.21737183 40.0825271,2.57811824 Z" id="Fill-5"></path>
                <path d="M29.6177773,4.85830684 L26.6147653,6.81885893 C29.4750473,8.76729329 32.2115554,10.2845904 34.8242897,11.3707502 C40.1341913,13.5781702 46.8841749,14.9995752 48.423617,15.3807663 C57.1621923,17.5447908 65.4157347,19.5875337 72.0525009,26.2540122 C72.3898283,26.5917965 72.7061975,26.9365971 73.0195726,27.2824 C73.7002154,25.9763676 73.358896,24.2523647 71.9976104,23.3643028 L58.8667933,14.7893932 C55.6791495,13.7329403 52.4316251,12.9250645 49.222025,12.1312213 C46.1950608,11.3814806 41.0779702,10.0491921 38.2156776,9.13005801 C36.3074826,8.51730196 33.4415158,7.0933849 29.6177773,4.85830684 Z" id="Fill-7"></path>
                <path d="M29.7315665,14.094497 C27.5581473,13.0954401 25.1789914,11.566935 22.5940987,9.50898164 L19.7614089,11.4291886 C22.680354,13.872933 25.1682837,15.5953444 27.225198,16.5964226 C30.3105695,18.09804 42.0831903,21.3149916 42.8121204,21.4949169 C51.5552876,23.6520212 59.5365954,25.256157 66.1778478,31.9045231 C66.1888316,31.9163913 68.9772132,30.2313417 68.797477,30.052416 C61.5001876,22.7464498 52.4120302,20.425361 43.6109479,18.253263 C42.6064223,18.005366 32.9916953,15.5930823 29.7315665,14.094497 Z" id="Fill-11"></path>
                <path d="M40.2748943,27.6858128 C47.2416777,29.4577639 53.792549,31.5762923 59.3417736,36.4444 L62.2704462,34.569277 C55.9296207,28.6976319 48.8074918,25.8624309 40.7862587,24.3617515 C33.595662,23.0164746 28.8766311,21.3487752 23.507058,19.2459776 C19.9273426,17.8441125 17.1081118,16.3021039 15.0493654,14.6199518 L12.1044223,16.5060931 C15.496129,19.1544049 18.552383,21.0412683 21.2731845,22.1666833 C24.8656838,23.6526619 31.1995871,25.4923718 40.2748943,27.6858128 Z" id="Fill-17"></path>
                <path d="M5.18885131,21.1343855 C5.29067424,21.2373258 5.38333311,21.3442637 5.48821073,21.4462046 C12.9304487,28.7509644 21.8300234,30.8575975 30.8057147,33.0293369 C38.5788773,34.9092456 45.6427477,36.4683588 51.8987485,41.3005539 L54.8844037,39.3547126 C47.8362204,33.5300936 39.7691873,31.7600736 31.6202982,29.7892176 C22.7942865,27.6534573 14.8355558,25.7666967 8.09895067,19.2774634 L5.18885131,21.1343855 Z" id="Fill-19"></path>
                <path d="M1.86538962,23.4720365 C0.558922248,24.8286618 0.712329392,27.1676708 2.35067758,28.271683 L12.2679982,34.9570906 C16.6576484,36.8407725 20.0248373,37.7569569 24.5388174,38.9108681 C31.5855194,40.7113852 38.2525371,42.1959537 44.0850166,46.38226 L46.9264812,44.4396723 C40.2948809,39.2709822 32.8228032,37.452366 25.3399436,35.5395764 C16.5616459,33.2962069 9.49263239,31.439221 2.82393361,24.5251104 C2.49004747,24.178937 2.17621456,23.8265263 1.86538962,23.4720365 Z" id="Fill-21"></path>
                <path d="M34.1645854,49.6645268 C34.893506,50.0634031 35.1425612,50.5086988 36.1796702,50.7 C36.9305233,50.7 37.7585832,50.659873 38.4352738,50.23418 L40.0920678,49.1926318 C34.7693674,45.7494414 29.2447004,43.7586502 23.3471124,42.3058883 L34.1645854,49.6645268 Z" id="Fill-23"></path>
            </g>
            <g id="Group-Copy-2" transform="translate(17.363303, 53.000000)">
                <path d="M40.0825271,2.57811824 C39.3101975,2.18406772 37.9113821,0.772333321 36.5592679,0.815362703 C35.3879258,0.815362703 34.9298365,1.30862747 33.0353111,2.57811824 C35.6703059,3.73059649 45.4272614,7.16970562 48.1569327,7.9404 C43.8145304,5.00479909 41.1230619,3.21737183 40.0825271,2.57811824 Z" id="Fill-5"></path>
                <path d="M29.6177773,4.85830684 L26.6147653,6.81885893 C29.4750473,8.76729329 32.2115554,10.2845904 34.8242897,11.3707502 C40.1341913,13.5781702 46.8841749,14.9995752 48.423617,15.3807663 C57.1621923,17.5447908 65.4157347,19.5875337 72.0525009,26.2540122 C72.3898283,26.5917965 72.7061975,26.9365971 73.0195726,27.2824 C73.7002154,25.9763676 73.358896,24.2523647 71.9976104,23.3643028 L58.8667933,14.7893932 C55.6791495,13.7329403 52.4316251,12.9250645 49.222025,12.1312213 C46.1950608,11.3814806 41.0779702,10.0491921 38.2156776,9.13005801 C36.3074826,8.51730196 33.4415158,7.0933849 29.6177773,4.85830684 Z" id="Fill-7"></path>
                <path d="M29.7315665,14.094497 C27.5581473,13.0954401 25.1789914,11.566935 22.5940987,9.50898164 L19.7614089,11.4291886 C22.680354,13.872933 25.1682837,15.5953444 27.225198,16.5964226 C30.3105695,18.09804 42.0831903,21.3149916 42.8121204,21.4949169 C51.5552876,23.6520212 59.5365954,25.256157 66.1778478,31.9045231 C66.1888316,31.9163913 68.9772132,30.2313417 68.797477,30.052416 C61.5001876,22.7464498 52.4120302,20.425361 43.6109479,18.253263 C42.6064223,18.005366 32.9916953,15.5930823 29.7315665,14.094497 Z" id="Fill-11"></path>
                <path d="M40.2748943,27.6858128 C47.2416777,29.4577639 53.792549,31.5762923 59.3417736,36.4444 L62.2704462,34.569277 C55.9296207,28.6976319 48.8074918,25.8624309 40.7862587,24.3617515 C33.595662,23.0164746 28.8766311,21.3487752 23.507058,19.2459776 C19.9273426,17.8441125 17.1081118,16.3021039 15.0493654,14.6199518 L12.1044223,16.5060931 C15.496129,19.1544049 18.552383,21.0412683 21.2731845,22.1666833 C24.8656838,23.6526619 31.1995871,25.4923718 40.2748943,27.6858128 Z" id="Fill-17"></path>
                <path d="M5.18885131,21.1343855 C5.29067424,21.2373258 5.38333311,21.3442637 5.48821073,21.4462046 C12.9304487,28.7509644 21.8300234,30.8575975 30.8057147,33.0293369 C38.5788773,34.9092456 45.6427477,36.4683588 51.8987485,41.3005539 L54.8844037,39.3547126 C47.8362204,33.5300936 39.7691873,31.7600736 31.6202982,29.7892176 C22.7942865,27.6534573 14.8355558,25.7666967 8.09895067,19.2774634 L5.18885131,21.1343855 Z" id="Fill-19"></path>
                <path d="M1.86538962,23.4720365 C0.558922248,24.8286618 0.712329392,27.1676708 2.35067758,28.271683 L12.2679982,34.9570906 C16.6576484,36.8407725 20.0248373,37.7569569 24.5388174,38.9108681 C31.5855194,40.7113852 38.2525371,42.1959537 44.0850166,46.38226 L46.9264812,44.4396723 C40.2948809,39.2709822 32.8228032,37.452366 25.3399436,35.5395764 C16.5616459,33.2962069 9.49263239,31.439221 2.82393361,24.5251104 C2.49004747,24.178937 2.17621456,23.8265263 1.86538962,23.4720365 Z" id="Fill-21"></path>
                <path d="M34.1645854,49.6645268 C34.893506,50.0634031 35.1425612,50.5086988 36.1796702,50.7 C36.9305233,50.7 37.7585832,50.659873 38.4352738,50.23418 L40.0920678,49.1926318 C34.7693674,45.7494414 29.2447004,43.7586502 23.3471124,42.3058883 L34.1645854,49.6645268 Z" id="Fill-23"></path>
            </g>
        </g>
    </g>
</svg>