<?xml version="1.0" encoding="utf-8"?>
<!-- Generator: Adobe Illustrator 16.0.3, SVG Export Plug-In . SVG Version: 6.00 Build 0)  -->
<!DOCTYPE svg PUBLIC "-//W3C//DTD SVG 1.1//EN" "http://www.w3.org/Graphics/SVG/1.1/DTD/svg11.dtd">
<svg version="1.1" id="Layer_1" xmlns="http://www.w3.org/2000/svg" xmlns:xlink="http://www.w3.org/1999/xlink" x="0px" y="0px"
	 width="900px" height="900px" viewBox="0 0 900 900" enable-background="new 0 0 900 900" xml:space="preserve">
<g>
	<defs>
		<rect id="SVGID_1_" width="900" height="900"/>
	</defs>
	<clipPath id="SVGID_2_">
		<use xlink:href="#SVGID_1_"  overflow="visible"/>
	</clipPath>
	<path clip-path="url(#SVGID_2_)" fill="#33324B" d="M356.003,268.915L586.001,63.471c-18.262-14.35-38.76-25.978-60.934-34.188
		L356.003,180.298V268.915z"/>
	<path clip-path="url(#SVGID_2_)" fill="#33324B" d="M289.914,239.333l-62.307,55.655c5.674,23.087,14.884,44.774,27.05,64.454
		l35.257-31.493V239.333z"/>
	<path clip-path="url(#SVGID_2_)" fill="#40C6F1" d="M479.023,70.412V17.631c-10.554-1.513-21.329-2.338-32.302-2.338
		c-11.484,0-22.764,0.871-33.787,2.527v111.626L479.023,70.412z"/>
	<path clip-path="url(#SVGID_2_)" fill="#40C6F1" d="M479.023,380.863V159.029l-66.089,59.033v246.046
		c11.023,1.655,22.303,2.526,33.787,2.526c13.449,0,26.601-1.244,39.404-3.5l176.98-158.086c6.01-20.321,9.287-41.815,9.287-64.085
		c0-10.488-0.774-20.79-2.159-30.898L479.023,380.863z"/>
	<path clip-path="url(#SVGID_2_)" fill="#F04E27" d="M479.023,315.734l177.305-158.376c-8.446-21.157-19.978-40.739-34.079-58.175
		L479.023,227.118V315.734z"/>
	<path clip-path="url(#SVGID_2_)" fill="#F04E27" d="M412.935,286.152l-56.931,50.854V34.328
		c-24.657,10.841-46.992,25.96-66.09,44.426v324.42c14.897,14.403,31.742,26.797,50.147,36.688l72.874-65.094V286.152z"/>
	<polygon clip-path="url(#SVGID_2_)" fill="#33324B" points="175.804,603.774 207.413,485.167 249.859,485.167 202.897,650.136 
		152.926,650.136 124.93,539.054 96.933,650.136 46.961,650.136 0,485.167 42.446,485.167 74.055,603.774 105.362,485.167 
		144.497,485.167 	"/>
	<path clip-path="url(#SVGID_2_)" fill="#33324B" d="M406.409,595.948c-4.816,32.812-30.103,56.293-73.452,56.293
		c-46.059,0-80.076-27.695-80.076-83.686c0-56.293,35.222-85.495,80.076-85.495c49.67,0,75.861,36.426,75.861,85.191v8.73H295.025
		c0,18.365,7.526,41.543,37.328,41.543c16.558,0,29.502-8.127,32.814-23.479L406.409,595.948z M365.77,547.784
		c-1.506-22.88-16.256-31.308-33.114-31.308c-19.266,0-34.017,11.738-36.124,31.308H365.77z"/>
	<path clip-path="url(#SVGID_2_)" fill="#33324B" d="M530.318,543.269v-5.721c0-12.944-5.42-21.374-29.803-21.374
		c-30.404,0-31.308,16.859-31.308,22.58h-39.134c0-24.386,10.234-55.693,71.646-55.693c58.702,0,69.238,29.201,69.238,52.982v90.912
		c0,6.624,0.301,12.041,0.903,16.256l1.204,6.925h-41.544v-16.557c-11.739,11.738-27.995,18.662-51.176,18.662
		c-32.511,0-57.196-18.965-57.196-51.777c0-37.93,35.824-46.059,50.273-48.465L530.318,543.269z M530.318,574.275l-15.955,2.406
		c-8.73,1.506-19.267,3.011-25.588,4.215c-6.925,1.205-12.945,2.71-17.46,6.321c-4.215,3.313-6.321,7.829-6.321,13.546
		c0,4.818,1.806,19.87,24.385,19.87c13.243,0,24.984-4.816,31.307-11.14c8.128-8.127,9.633-18.362,9.633-26.49V574.275z"/>
	<polygon clip-path="url(#SVGID_2_)" fill="#33324B" points="687.764,650.136 632.675,650.136 578.488,485.167 623.041,485.167 
		660.972,611.303 699.203,485.167 742.552,485.167 	"/>
	<path clip-path="url(#SVGID_2_)" fill="#33324B" d="M897.591,595.948c-4.816,32.812-30.103,56.293-73.452,56.293
		c-46.059,0-80.075-27.695-80.075-83.686c0-56.293,35.222-85.495,80.075-85.495c49.67,0,75.861,36.426,75.861,85.191v8.73H786.208
		c0,18.365,7.526,41.543,37.328,41.543c16.558,0,29.502-8.127,32.812-23.479L897.591,595.948z M856.952,547.784
		c-1.506-22.88-16.256-31.308-33.114-31.308c-19.266,0-34.017,11.738-36.124,31.308H856.952z"/>
</g>
<g id="flagger1">
	<path id="fagger" fill="#566991" d="M138.27,737.32h-30.625v113.925H87.8V737.32H64.77v-16.905H87.8v-22.05
		c0-18.62,11.515-29.89,32.095-29.89c8.575,0,20.09,0.489,20.09,0.489v17.15c-1.225,0-10.535-0.245-13.965-0.245
		c-10.535,0-18.375,1.225-18.375,14.945v19.6h30.625V737.32z M179.675,851.245h-20.09v-181.3h20.09V851.245z M293.519,800.285
		V785.34c0,0-28.42,3.675-42.875,5.88c-13.965,1.96-25.235,6.615-25.235,22.051c0,12.984,8.82,22.784,26.705,22.784
		C276.858,836.055,293.519,821.845,293.519,800.285z M239.618,776.521c12.495-2.45,53.9-7.351,53.9-7.351v-7.104
		c0-18.13-7.84-26.705-30.87-26.705c-24.745,0-31.605,11.27-32.585,24.5h-20.09c0-16.905,9.555-41.16,52.185-41.16
		c44.835,0,51.45,23.275,51.45,44.1v67.375c0,6.125,0.245,15.926,1.715,21.07h-20.335c0,0-0.49-7.105-0.49-17.64
		c-6.37,8.33-19.11,19.354-45.815,19.354c-25.235,0-44.1-14.7-44.1-39.2C204.583,786.565,226.388,779.215,239.618,776.521z
		 M338.271,782.646c0-42.386,24.99-63.945,55.86-63.945c22.295,0,36.015,10.535,40.425,20.58v-18.865h19.845V850.51
		c0,25.235-12.25,49.49-58.31,49.49c-34.3,0-55.125-13.72-55.86-42.63h20.335c0,14.945,10.535,25.97,36.015,25.97
		c29.399,0,37.729-13.475,37.729-35.035v-22.784c-4.41,10.045-18.62,20.58-40.915,20.58
		C362.527,846.101,338.271,825.03,338.271,782.646z M434.312,782.4c0-33.32-14.7-46.55-38.22-46.55
		c-20.825,0-37.485,11.76-37.485,46.305s16.66,46.795,37.485,46.795C419.611,828.95,434.312,815.72,434.312,782.4z M478.575,782.646
		c0-42.386,24.99-63.945,55.859-63.945c22.296,0,36.016,10.535,40.426,20.58v-18.865h19.845V850.51
		c0,25.235-12.25,49.49-58.311,49.49c-34.3,0-55.125-13.72-55.859-42.63h20.335c0,14.945,10.535,25.97,36.015,25.97
		c29.4,0,37.73-13.475,37.73-35.035v-22.784c-4.41,10.045-18.62,20.58-40.915,20.58C502.83,846.101,478.575,825.03,478.575,782.646z
		 M574.615,782.4c0-33.32-14.7-46.55-38.221-46.55c-20.824,0-37.484,11.76-37.484,46.305s16.66,46.795,37.484,46.795
		C559.915,828.95,574.615,815.72,574.615,782.4z M714.674,806.165l20.335,0.245c-2.695,23.03-18.62,46.55-56.105,46.55
		c-34.79,0-60.025-23.765-60.025-66.885c0-40.67,24.99-67.375,59.78-67.375c36.75,0,57.085,27.439,57.085,70.56h-96.285
		c0.49,24.745,10.78,46.795,39.69,46.795C700.463,836.055,712.958,822.825,714.674,806.165z M640.193,773.335h73.745
		c-1.96-27.685-17.885-37.729-35.771-37.729C658.078,735.605,642.644,749.08,640.193,773.335z M829.497,740.995h-8.82
		c-23.521,0-39.936,8.085-39.936,38.955v71.295h-20.09v-130.83h19.846v22.54c8.574-16.66,25.97-22.54,39.689-22.54h9.311V740.995z"
		/>
</g>
</svg>
