<?xml version="1.0" encoding="UTF-8"?>
<svg width="1585px" height="534px" viewBox="0 0 1585 534" version="1.1" xmlns="http://www.w3.org/2000/svg" xmlns:xlink="http://www.w3.org/1999/xlink">
    <!-- Generator: Sketch 51.2 (57519) - http://www.bohemiancoding.com/sketch -->
    <title>Logo</title>
    <desc>Created with Sketch.</desc>
    <defs></defs>
    <g id="Page-1" stroke="none" stroke-width="1" fill="none" fill-rule="evenodd">
        <g id="Logo" transform="translate(-82.000000, -67.000000)">
            <g id="istio-refresh" fill-rule="nonzero">
                <polygon id="hull" fill="#466BB0" points="467.486761 456 322.182535 499.591268 235 456"></polygon>
                <polygon id="mainsail" fill="#466BB0" points="322.182535 426.834648 322.182535 267 235 441.365071"></polygon>
                <polygon id="headsail" fill="#466BB0" points="466.773803 441.608451 336 151 336 427.078028"></polygon>
                <g id="arrows" transform="translate(338.000000, 338.000000) rotate(-24.000000) translate(-338.000000, -338.000000) translate(82.000000, 82.000000)">
                    <path d="M256.000042,0 C114.772094,0 0.00128552135,114.771366 0.00128552135,256 C-0.0639978677,260.61614 2.36127785,264.909841 6.34842716,267.236963 C10.3355765,269.564084 15.2668702,269.564084 19.2540195,267.236963 C23.2411688,264.909841 25.6664445,260.61614 25.6011612,256 C25.6011612,128.607834 128.608494,25.6 256.000042,25.6 C335.938457,25.6 406.118967,66.3034496 447.449109,128 L413.301505,128 C408.685388,127.934716 404.391707,130.360004 402.064597,134.347172 C399.737487,138.334341 399.737487,143.265659 402.064597,147.252828 C404.391707,151.239996 408.685388,153.665284 413.301505,153.6 L470.549003,153.6 L486.398923,153.6 L486.398923,70.7176471 C486.446301,67.257803 485.091067,63.9261384 482.642017,61.4817859 C480.192966,59.0374333 476.858715,57.6886086 473.398986,57.7426467 C466.339613,57.8529965 460.702373,63.6580397 460.799047,70.7176471 L460.799047,102.525005 C414.068394,40.3001766 339.69529,0 256.000042,0 Z" id="Shape" fill="#35A2EE"></path>
                    <path d="M498.998861,243.024998 C491.939488,243.135348 486.302248,248.940392 486.398923,256 C486.398923,383.392166 383.391589,486.4 256.000042,486.4 C176.054933,486.4 105.870698,445.69303 64.5509751,384 L92.9338727,384.024998 C97.54999,384.090282 101.843671,381.664995 104.170781,377.677826 C106.497891,373.690657 106.497891,368.75934 104.170781,364.772171 C101.843671,360.785002 97.54999,358.359715 92.9338727,358.424998 L44.1010713,358.4 C42.4667939,358.077951 40.7853733,358.077951 39.151096,358.4 L25.6011612,358.4 L25.6011612,432.243137 C25.5358778,436.859277 27.9611535,441.152979 31.9483028,443.4801 C35.9354521,445.807221 40.8667458,445.807221 44.8538951,443.4801 C48.8410445,441.152979 51.2663202,436.859277 51.2010368,432.243137 L51.2010368,409.424998 C97.9168162,471.668595 172.282881,512 256.000042,512 C397.227989,512 511.998798,397.228634 511.998798,256 C512.046177,252.540156 510.690943,249.208491 508.241893,246.764138 C505.792842,244.319785 502.458591,242.97096 498.998861,243.024998 Z" id="Path" fill="#1DCBA2"></path>
                </g>
            </g>
            <path d="M772.22,435.4 C756.019919,435.4 742.160058,432.970024 730.64,428.11 C719.119942,423.249976 710.39003,416.86004 704.45,408.94 C698.50997,401.01996 695.360002,392.380047 695,383.02 C695,381.579993 695.539995,380.275006 696.62,379.105 C697.700005,377.934994 699.049992,377.35 700.67,377.35 L725.24,377.35 C727.22001,377.35 728.839994,377.799996 730.1,378.7 C731.360006,379.600005 732.529995,380.859992 733.61,382.48 C735.410009,388.600031 739.504968,393.729979 745.895,397.87 C752.285032,402.010021 761.059944,404.08 772.22,404.08 C784.820063,404.08 794.314968,401.965021 800.705,397.735 C807.095032,393.504979 810.29,387.700037 810.29,380.32 C810.29,375.459976 808.670016,371.410016 805.43,368.17 C802.189984,364.929984 797.285033,362.095012 790.715,359.665 C784.144967,357.234988 774.380065,354.310017 761.42,350.89 C740.179894,345.849975 724.610049,339.190041 714.71,330.91 C704.809951,322.629959 699.86,310.750077 699.86,295.27 C699.86,284.829948 702.739971,275.515041 708.5,267.325 C714.260029,259.134959 722.494946,252.700023 733.205,248.02 C743.915054,243.339977 756.379929,241 770.6,241 C785.540075,241 798.454946,243.609974 809.345,248.83 C820.235054,254.050026 828.514972,260.574961 834.185,268.405 C839.855028,276.235039 842.869998,284.019961 843.23,291.76 C843.23,293.200007 842.690005,294.504994 841.61,295.675 C840.529995,296.845006 839.180008,297.43 837.56,297.43 L811.91,297.43 C807.94998,297.43 805.250007,295.810016 803.81,292.57 C802.909995,286.809971 799.400031,281.995019 793.28,278.125 C787.159969,274.254981 779.600045,272.32 770.6,272.32 C760.699951,272.32 752.915028,274.209981 747.245,277.99 C741.574972,281.770019 738.74,287.259964 738.74,294.46 C738.74,299.320024 740.179986,303.369984 743.06,306.61 C745.940014,309.850016 750.439969,312.684988 756.56,315.115 C762.680031,317.545012 771.589942,320.289985 783.29,323.35 C799.31008,326.950018 812.044953,330.999978 821.495,335.5 C830.945047,340.000023 837.919977,345.669966 842.42,352.51 C846.920022,359.350034 849.17,368.079947 849.17,378.7 C849.17,390.400059 845.975032,400.524957 839.585,409.075 C833.194968,417.625043 824.195058,424.149978 812.585,428.65 C800.974942,433.150023 787.520076,435.4 772.22,435.4 Z M940.43,432.7 C924.049918,432.7 911.720041,428.425043 903.44,419.875 C895.159959,411.324957 891.02,398.770083 891.02,382.21 L891.02,321.19 L869.69,321.19 C867.889991,321.19 866.360006,320.560006 865.1,319.3 C863.839994,318.039994 863.21,316.510009 863.21,314.71 L863.21,298.78 C863.21,296.979991 863.839994,295.450006 865.1,294.19 C866.360006,292.929994 867.889991,292.3 869.69,292.3 L891.02,292.3 L891.02,247.48 C891.02,245.49999 891.649994,243.925006 892.91,242.755 C894.170006,241.584994 895.699991,241 897.5,241 L919.91,241 C921.89001,241 923.464994,241.584994 924.635,242.755 C925.805006,243.925006 926.39,245.49999 926.39,247.48 L926.39,292.3 L960.14,292.3 C961.940009,292.3 963.469994,292.929994 964.73,294.19 C965.990006,295.450006 966.62,296.979991 966.62,298.78 L966.62,314.71 C966.62,316.510009 965.990006,318.039994 964.73,319.3 C963.469994,320.560006 961.940009,321.19 960.14,321.19 L926.39,321.19 L926.39,379.24 C926.39,386.980039 927.739986,392.82998 930.44,396.79 C933.140014,400.75002 937.549969,402.73 943.67,402.73 L962.57,402.73 C964.55001,402.73 966.124994,403.314994 967.295,404.485 C968.465006,405.655006 969.05,407.22999 969.05,409.21 L969.05,426.22 C969.05,428.020009 968.465006,429.549994 967.295,430.81 C966.124994,432.070006 964.55001,432.7 962.57,432.7 L940.43,432.7 Z M1053.83,435.4 C1033.6699,435.4 1017.69506,429.640058 1005.905,418.12 C994.114941,406.599942 987.860004,390.220106 987.14,368.98 L986.87,362.23 C986.87,339.729888 992.764941,322.000065 1004.555,309.04 C1016.34506,296.079935 1032.6799,289.6 1053.56,289.6 C1074.98011,289.6 1091.49494,296.079935 1103.105,309.04 C1114.71506,322.000065 1120.52,339.279892 1120.52,360.88 L1120.52,366.55 C1120.52,368.350009 1119.89001,369.879994 1118.63,371.14 C1117.36999,372.400006 1115.75001,373.03 1113.77,373.03 L1024.13,373.03 L1024.13,375.19 C1024.49,385.27005 1027.23497,393.594967 1032.365,400.165 C1037.49503,406.735033 1044.55995,410.02 1053.56,410.02 C1063.82005,410.02 1072.18997,405.880041 1078.67,397.6 C1080.29001,395.61999 1081.55,394.405002 1082.45,393.955 C1083.35,393.504998 1084.87999,393.28 1087.04,393.28 L1110.8,393.28 C1112.42001,393.28 1113.81499,393.729996 1114.985,394.63 C1116.15501,395.530005 1116.74,396.789992 1116.74,398.41 C1116.74,402.730022 1114.17503,407.814971 1109.045,413.665 C1103.91497,419.515029 1096.58005,424.599978 1087.04,428.92 C1077.49995,433.240022 1066.43006,435.4 1053.83,435.4 Z M1083.26,350.08 L1083.26,349.54 C1083.26,338.919947 1080.60503,330.415032 1075.295,324.025 C1069.98497,317.634968 1062.74005,314.44 1053.56,314.44 C1044.37995,314.44 1037.18003,317.634968 1031.96,324.025 C1026.73997,330.415032 1024.13,338.919947 1024.13,349.54 L1024.13,350.08 L1083.26,350.08 Z M1209.89,435.4 C1189.7299,435.4 1173.75506,429.640058 1161.965,418.12 C1150.17494,406.599942 1143.92,390.220106 1143.2,368.98 L1142.93,362.23 C1142.93,339.729888 1148.82494,322.000065 1160.615,309.04 C1172.40506,296.079935 1188.7399,289.6 1209.62,289.6 C1231.04011,289.6 1247.55494,296.079935 1259.165,309.04 C1270.77506,322.000065 1276.58,339.279892 1276.58,360.88 L1276.58,366.55 C1276.58,368.350009 1275.95001,369.879994 1274.69,371.14 C1273.42999,372.400006 1271.81001,373.03 1269.83,373.03 L1180.19,373.03 L1180.19,375.19 C1180.55,385.27005 1183.29497,393.594967 1188.425,400.165 C1193.55503,406.735033 1200.61995,410.02 1209.62,410.02 C1219.88005,410.02 1228.24997,405.880041 1234.73,397.6 C1236.35001,395.61999 1237.61,394.405002 1238.51,393.955 C1239.41,393.504998 1240.93999,393.28 1243.1,393.28 L1266.86,393.28 C1268.48001,393.28 1269.87499,393.729996 1271.045,394.63 C1272.21501,395.530005 1272.8,396.789992 1272.8,398.41 C1272.8,402.730022 1270.23503,407.814971 1265.105,413.665 C1259.97497,419.515029 1252.64005,424.599978 1243.1,428.92 C1233.55995,433.240022 1222.49006,435.4 1209.89,435.4 Z M1239.32,350.08 L1239.32,349.54 C1239.32,338.919947 1236.66503,330.415032 1231.355,324.025 C1226.04497,317.634968 1218.80005,314.44 1209.62,314.44 C1200.43995,314.44 1193.24003,317.634968 1188.02,324.025 C1182.79997,330.415032 1180.19,338.919947 1180.19,349.54 L1180.19,350.08 L1239.32,350.08 Z M1311.68,432.7 C1309.87999,432.7 1308.35001,432.070006 1307.09,430.81 C1305.82999,429.549994 1305.2,428.020009 1305.2,426.22 L1305.2,299.05 C1305.2,297.06999 1305.82999,295.450006 1307.09,294.19 C1308.35001,292.929994 1309.87999,292.3 1311.68,292.3 L1333.82,292.3 C1335.80001,292.3 1337.41999,292.929994 1338.68,294.19 C1339.94001,295.450006 1340.57,297.06999 1340.57,299.05 L1340.57,310.12 C1349.57005,298.239941 1362.52992,292.3 1379.45,292.3 L1390.79,292.3 C1392.77001,292.3 1394.34499,292.884994 1395.515,294.055 C1396.68501,295.225006 1397.27,296.79999 1397.27,298.78 L1397.27,318.49 C1397.27,320.290009 1396.68501,321.819994 1395.515,323.08 C1394.34499,324.340006 1392.77001,324.97 1390.79,324.97 L1369.46,324.97 C1360.99996,324.97 1354.34002,327.399976 1349.48,332.26 C1344.61998,337.120024 1342.19,343.779958 1342.19,352.24 L1342.19,426.22 C1342.19,428.020009 1341.56001,429.549994 1340.3,430.81 C1339.03999,432.070006 1337.51001,432.7 1335.71,432.7 L1311.68,432.7 Z M1479.08,435.4 C1458.9199,435.4 1442.94506,429.640058 1431.155,418.12 C1419.36494,406.599942 1413.11,390.220106 1412.39,368.98 L1412.12,362.23 C1412.12,339.729888 1418.01494,322.000065 1429.805,309.04 C1441.59506,296.079935 1457.9299,289.6 1478.81,289.6 C1500.23011,289.6 1516.74494,296.079935 1528.355,309.04 C1539.96506,322.000065 1545.77,339.279892 1545.77,360.88 L1545.77,366.55 C1545.77,368.350009 1545.14001,369.879994 1543.88,371.14 C1542.61999,372.400006 1541.00001,373.03 1539.02,373.03 L1449.38,373.03 L1449.38,375.19 C1449.74,385.27005 1452.48497,393.594967 1457.615,400.165 C1462.74503,406.735033 1469.80995,410.02 1478.81,410.02 C1489.07005,410.02 1497.43997,405.880041 1503.92,397.6 C1505.54001,395.61999 1506.8,394.405002 1507.7,393.955 C1508.6,393.504998 1510.12999,393.28 1512.29,393.28 L1536.05,393.28 C1537.67001,393.28 1539.06499,393.729996 1540.235,394.63 C1541.40501,395.530005 1541.99,396.789992 1541.99,398.41 C1541.99,402.730022 1539.42503,407.814971 1534.295,413.665 C1529.16497,419.515029 1521.83005,424.599978 1512.29,428.92 C1502.74995,433.240022 1491.68006,435.4 1479.08,435.4 Z M1508.51,350.08 L1508.51,349.54 C1508.51,338.919947 1505.85503,330.415032 1500.545,324.025 C1495.23497,317.634968 1487.99005,314.44 1478.81,314.44 C1469.62995,314.44 1462.43003,317.634968 1457.21,324.025 C1451.98997,330.415032 1449.38,338.919947 1449.38,349.54 L1449.38,350.08 L1508.51,350.08 Z M1580.87,432.7 C1579.06999,432.7 1577.54001,432.070006 1576.28,430.81 C1575.01999,429.549994 1574.39,428.020009 1574.39,426.22 L1574.39,299.05 C1574.39,297.06999 1575.01999,295.450006 1576.28,294.19 C1577.54001,292.929994 1579.06999,292.3 1580.87,292.3 L1603.01,292.3 C1604.99001,292.3 1606.60999,292.929994 1607.87,294.19 C1609.13001,295.450006 1609.76,297.06999 1609.76,299.05 L1609.76,310.12 C1618.76005,298.239941 1631.71992,292.3 1648.64,292.3 L1659.98,292.3 C1661.96001,292.3 1663.53499,292.884994 1664.705,294.055 C1665.87501,295.225006 1666.46,296.79999 1666.46,298.78 L1666.46,318.49 C1666.46,320.290009 1665.87501,321.819994 1664.705,323.08 C1663.53499,324.340006 1661.96001,324.97 1659.98,324.97 L1638.65,324.97 C1630.18996,324.97 1623.53002,327.399976 1618.67,332.26 C1613.80998,337.120024 1611.38,343.779958 1611.38,352.24 L1611.38,426.22 C1611.38,428.020009 1610.75001,429.549994 1609.49,430.81 C1608.22999,432.070006 1606.70001,432.7 1604.9,432.7 L1580.87,432.7 Z" id="Steerer" fill="#466BB0"></path>
        </g>
    </g>
</svg>